# xmcd
#
# Track frame offsets: 
#        150
#        17054
#        38385
#        57436
#        81127
#        99826
#        120270
#        143610
#        165207
#        176180
#        194394
#
# Disc length: 2865 seconds
#
# Revision: 1
# Processed by: cddbd v1.5.2PL0 Copyright (c) Steve Scherf et al.
# Submitted via: ExactAudioCopy v0.95b3
#
DISCID=7a0b2f0b
DTITLE=21C-B-Boyz - Now Or Never
DYEAR=2004
DGENRE=Blues/Rap
TTITLE0=She's A Dogcatcher
TTITLE1=Get Wit U
TTITLE2=Lemon Juice
TTITLE3=We All Family
TTITLE4=Celestial Body (Let Me Lick)
TTITLE5=My Pain, Your Pleasure
TTITLE6=Rumors
TTITLE7=41 Bullets
TTITLE8=Roc Yo Daddy
TTITLE9=Mr. Dollar Bill
TTITLE10=Death Letter
EXTD=
EXTT0=
EXTT1=
EXTT2=
EXTT3=
EXTT4=
EXTT5=
EXTT6=
EXTT7=
EXTT8=
EXTT9=
EXTT10=
PLAYORDER=
